<mxfile host="app.diagrams.net" modified="2024-02-27T01:51:47.555Z" agent="Mozilla/5.0 (Windows NT 10.0; Win64; x64) AppleWebKit/537.36 (KHTML, like Gecko) Chrome/120.0.0.0 Safari/537.36 Edg/120.0.0.0" version="23.1.6" etag="xLajLo91-5f4vqLbngpa" type="github">
  <diagram name="第 1 页" id="MoOPOEO3v_FhN56F-h70">
    <mxGraphModel>
      <root>
        <mxCell id="0" />
        <mxCell id="1" parent="0" />
      </root>
    </mxGraphModel>
  </diagram>
</mxfile>
